<?xml version="1.0" encoding="UTF-8"?> <!-- Generator: Adobe Illustrator 24.2.3, SVG Export Plug-In . SVG Version: 6.00 Build 0) --> <svg xmlns="http://www.w3.org/2000/svg" xmlns:xlink="http://www.w3.org/1999/xlink" version="1.1" x="0px" y="0px" viewBox="0 0 419.1 207.4" style="enable-background:new 0 0 419.1 207.4;" xml:space="preserve"> <style type="text/css"> .st0{fill:#7929D2;} .st1{fill:#9454DB;} .st2{fill:#AF7FE4;} .st3{fill:url(#SVGID_1_);} .st4{fill:url(#SVGID_2_);} .st5{fill:url(#SVGID_3_);} .st6{fill:url(#SVGID_4_);} .st7{fill:#FFFFFF;} </style> <g id="Colored_Negative"> </g> <g id="Colored_Positive"> <g> <polygon class="st0" points="125.1,110.5 94.1,123.6 120.4,137 "></polygon> <polygon class="st1" points="58.1,127.9 25,115.5 32.7,141.5 "></polygon> <polygon class="st2" points="73.8,104.6 94.1,123.6 58.1,127.9 "></polygon> <polygon class="st2" points="29,86.7 25,115.5 0,90.5 "></polygon> <linearGradient id="SVGID_1_" gradientUnits="userSpaceOnUse" x1="160.2215" y1="72.9768" x2="254.1267" y2="72.9768"> <stop offset="0" style="stop-color:#7929D2"></stop> <stop offset="1" style="stop-color:#0070C5"></stop> </linearGradient> <polygon class="st3" points="125.1,110.5 206.7,35.4 243.5,84.1 "></polygon> <linearGradient id="SVGID_2_" gradientUnits="userSpaceOnUse" x1="166.6127" y1="-9.7506" x2="165.8263" y2="83.0755"> <stop offset="0" style="stop-color:#00AEFF"></stop> <stop offset="1" style="stop-color:#9454DB"></stop> </linearGradient> <polygon class="st4" points="125.1,110.5 160,0 206.7,35.4 "></polygon> <linearGradient id="SVGID_3_" gradientUnits="userSpaceOnUse" x1="218.3011" y1="28.7401" x2="198.2528" y2="-5.9846"> <stop offset="0" style="stop-color:#66A9DC"></stop> <stop offset="1" style="stop-color:#B1E4FA"></stop> </linearGradient> <polygon class="st5" points="160,0 243.5,0 206.7,35.4 "></polygon> <linearGradient id="SVGID_4_" gradientUnits="userSpaceOnUse" x1="222.7606" y1="1.5318" x2="234.1514" y2="80.318"> <stop offset="0" style="stop-color:#00AEFF"></stop> <stop offset="1" style="stop-color:#9454DB"></stop> </linearGradient> <polygon class="st6" points="243.5,84.1 243.5,0 206.7,35.4 "></polygon> </g> <g> <path class="st7" d="M404.5,143.3v8.5h-2.1v-8.5h-3.2v-2h8.6v2H404.5z"></path> <path class="st7" d="M417,151.9v-7.1l-2.5,4.4h-1.2l-2.5-4.4v7.1h-2.1v-10.5h2.5l2.7,5l2.8-5h2.4v10.5H417z"></path> </g> <path class="st7" d="M159.6,192.7v-8.8l23.6-33h-22.5v-9.6h35v8.4l-23.8,33.4h24.4v9.6H159.6z"></path> <path class="st7" d="M210.8,175.8c0.2,3.5,1,6,2.5,7.5c1.5,1.5,3.9,2.3,7.1,2.3c1.9,0,3.5-0.2,5-0.7c1.4-0.5,2.7-1.4,3.7-2.7 l7.1,5.1c-1.6,2.3-3.6,3.9-6.1,5c-2.5,1.1-5.9,1.7-10.2,1.7c-6.4,0-11.2-1.7-14.3-5c-3.2-3.4-4.7-8.4-4.7-15.3 c0-13.9,6.2-20.9,18.7-20.9c5.5,0,9.8,1.6,12.7,4.7c2.9,3.1,4.4,7.7,4.4,13.7v4.7H210.8z M227.2,169.2c0-5.9-2.6-8.9-7.8-8.9 c-1.7,0-3.1,0.3-4.2,0.9c-1.1,0.6-2,1.4-2.6,2.6c-0.7,1.2-1.2,3-1.5,5.4H227.2z"></path> <path class="st7" d="M279.8,173c0,4.2-0.6,7.9-1.9,11.1c-1.3,3.2-3.1,5.6-5.4,7.3c-2.4,1.7-5.2,2.5-8.4,2.5c-4.3,0-8-1.3-11-4v17.6 h-9.6v-53.6h8.8v3.8c1.8-1.5,3.7-2.7,5.6-3.6c2-0.9,4.2-1.3,6.8-1.3c4.9,0,8.7,1.7,11.2,5.2C278.5,161.4,279.8,166.4,279.8,173z M269.9,173.1c0-3.8-0.7-6.7-2-8.9c-1.3-2.1-3.3-3.2-5.9-3.2c-1.6,0-3.2,0.4-4.8,1.1c-1.6,0.7-3.1,1.6-4.2,2.7v17 c1,0.9,2.3,1.7,3.8,2.4c1.5,0.7,3,1.1,4.6,1.1c2.6,0,4.7-1.1,6.2-3.4C269.2,179.8,269.9,176.9,269.9,173.1z"></path> <path class="st7" d="M311.8,192.7v-21.4c0-4.1-0.4-6.8-1.2-8.2c-0.8-1.3-2.1-2-4.1-2c-2.8,0-6.3,1.9-10.3,5.6v26h-9.6v-55.3h9.6 v21.4c2-2,4.2-3.6,6.5-4.6c2.3-1,4.6-1.6,6.8-1.6c4.4,0,7.4,1.2,9.2,3.7c1.8,2.4,2.7,5.9,2.7,10.4v26H311.8z"></path> <path class="st7" d="M325.9,198c2.1,0.7,3.9,1.1,5.6,1.1c1.4,0,2.7-0.4,3.8-1.3c1.1-0.9,2.2-2.7,3.4-5.4l1-2.3l-14.1-36.3h9.9 l9.2,24.9l9.4-24.9h9.7l-16.7,41.6c-1.4,3.3-2.7,5.8-4,7.4c-1.3,1.6-2.8,2.8-4.5,3.5c-1.7,0.7-3.9,1.1-6.5,1.1 c-2.8,0-5.6-0.4-8.3-1.1L325.9,198z"></path> <path class="st7" d="M391.8,163.2c-1-0.5-2.3-0.7-3.9-0.7c-1.8,0-3.5,0.4-5.1,1.3s-3.2,2.1-4.9,3.7v25.3h-9.6v-38.9h9.6v5.6 c1.6-1.8,3.4-3.3,5.3-4.4c1.9-1.2,4-1.7,6.3-1.7c2,0,3.4,0.3,4.2,0.8L391.8,163.2z"></path> </g> </svg> 